<svg width="164" height="48" viewBox="0 0 164 48" fill="none" xmlns="http://www.w3.org/2000/svg">
<path d="M2.46602 39.4999V11.6638H13.1148C15.0328 11.6638 16.7266 12 18.1963 12.6726C19.6908 13.3451 20.8616 14.3415 21.7085 15.6617C22.5554 16.9819 22.9789 18.6135 22.9789 20.5564C22.9789 22.4495 22.5429 24.0686 21.6711 25.4137C20.7993 26.7339 19.6286 27.7303 18.1589 28.4028L24.5108 39.4999H18.0094L11.1345 27.2072L14.8709 29.4117H8.25744V39.4999H2.46602ZM8.25744 24.3675H13.1521C13.9741 24.3675 14.6841 24.2056 15.2819 23.8818C15.8797 23.558 16.3405 23.1096 16.6643 22.5367C17.0131 21.9638 17.1874 21.3037 17.1874 20.5564C17.1874 19.7842 17.0131 19.1116 16.6643 18.5387C16.3405 17.9658 15.8797 17.5175 15.2819 17.1936C14.6841 16.8698 13.9741 16.7079 13.1521 16.7079H8.25744V24.3675ZM41.3243 39.9483C39.2319 39.9483 37.289 39.5871 35.4955 38.8648C33.702 38.1424 32.1327 37.1336 30.7876 35.8383C29.4674 34.5181 28.4337 32.9861 27.6864 31.2425C26.9392 29.4988 26.5655 27.6057 26.5655 25.5632C26.5655 23.5206 26.9267 21.6275 27.6491 19.8838C28.3963 18.1402 29.4301 16.6207 30.7503 15.3254C32.0954 14.0301 33.6647 13.0213 35.4581 12.2989C37.2516 11.5766 39.207 11.2154 41.3243 11.2154C43.4416 11.2154 45.397 11.5766 47.1904 12.2989C48.9839 13.0213 50.5407 14.0301 51.8609 15.3254C53.206 16.6207 54.2398 18.1402 54.9622 19.8838C55.7094 21.6275 56.0831 23.5206 56.0831 25.5632C56.0831 27.6057 55.7094 29.4988 54.9622 31.2425C54.2149 32.9861 53.1687 34.5181 51.8236 35.8383C50.5034 37.1336 48.9465 38.1424 47.1531 38.8648C45.3596 39.5871 43.4167 39.9483 41.3243 39.9483ZM41.3243 34.7173C42.5947 34.7173 43.7654 34.4932 44.8365 34.0448C45.9325 33.5964 46.8915 32.9737 47.7135 32.1766C48.5355 31.3546 49.1707 30.3831 49.6191 29.2622C50.0675 28.1413 50.2917 26.9083 50.2917 25.5632C50.2917 24.2181 50.0675 22.9975 49.6191 21.9015C49.1707 20.7806 48.5355 19.8091 47.7135 18.9871C46.8915 18.1651 45.9325 17.5424 44.8365 17.1189C43.7654 16.6705 42.5947 16.4464 41.3243 16.4464C40.0539 16.4464 38.8707 16.6705 37.7747 17.1189C36.7036 17.5424 35.7571 18.1651 34.935 18.9871C34.113 19.8091 33.4779 20.7806 33.0295 21.9015C32.5811 22.9975 32.3569 24.2181 32.3569 25.5632C32.3569 26.9083 32.5811 28.1413 33.0295 29.2622C33.4779 30.3831 34.113 31.3546 34.935 32.1766C35.7571 32.9737 36.7036 33.5964 37.7747 34.0448C38.8707 34.4932 40.0539 34.7173 41.3243 34.7173ZM74.1273 39.9483C72.0349 39.9483 70.0919 39.5871 68.2985 38.8648C66.505 38.1424 64.9357 37.1336 63.5906 35.8383C62.2704 34.5181 61.2367 32.9861 60.4894 31.2425C59.7421 29.4988 59.3685 27.6057 59.3685 25.5632C59.3685 23.5206 59.7297 21.6275 60.452 19.8838C61.1993 18.1402 62.233 16.6207 63.5532 15.3254C64.8983 14.0301 66.4676 13.0213 68.2611 12.2989C70.0546 11.5766 72.01 11.2154 74.1273 11.2154C76.2445 11.2154 78.1999 11.5766 79.9934 12.2989C81.7869 13.0213 83.3437 14.0301 84.6639 15.3254C86.009 16.6207 87.0427 18.1402 87.7651 19.8838C88.5124 21.6275 88.886 23.5206 88.886 25.5632C88.886 27.6057 88.5124 29.4988 87.7651 31.2425C87.0178 32.9861 85.9716 34.5181 84.6265 35.8383C83.3063 37.1336 81.7495 38.1424 79.956 38.8648C78.1626 39.5871 76.2196 39.9483 74.1273 39.9483ZM74.1273 34.7173C75.3976 34.7173 76.5684 34.4932 77.6395 34.0448C78.7355 33.5964 79.6945 32.9737 80.5165 32.1766C81.3385 31.3546 81.9737 30.3831 82.4221 29.2622C82.8704 28.1413 83.0946 26.9083 83.0946 25.5632C83.0946 24.2181 82.8704 22.9975 82.4221 21.9015C81.9737 20.7806 81.3385 19.8091 80.5165 18.9871C79.6945 18.1651 78.7355 17.5424 77.6395 17.1189C76.5684 16.6705 75.3976 16.4464 74.1273 16.4464C72.8569 16.4464 71.6737 16.6705 70.5777 17.1189C69.5066 17.5424 68.56 18.1651 67.738 18.9871C66.916 19.8091 66.2808 20.7806 65.8324 21.9015C65.3841 22.9975 65.1599 24.2181 65.1599 25.5632C65.1599 26.9083 65.3841 28.1413 65.8324 29.2622C66.2808 30.3831 66.916 31.3546 67.738 32.1766C68.56 32.9737 69.5066 33.5964 70.5777 34.0448C71.6737 34.4932 72.8569 34.7173 74.1273 34.7173Z" fill="black"/>
<path d="M103.698 39.9482C101.954 39.9482 100.31 39.6368 98.7661 39.0141C97.2466 38.3664 95.9264 37.4573 94.8055 36.2865C93.7095 35.1158 92.8875 33.7333 92.3395 32.1391L97.0847 30.0094C97.7821 31.5288 98.7412 32.7245 99.9617 33.5963C101.207 34.4681 102.577 34.904 104.072 34.904C104.869 34.904 105.554 34.7795 106.127 34.5304C106.7 34.2813 107.148 33.945 107.472 33.5216C107.796 33.0732 107.958 32.5501 107.958 31.9523C107.958 31.3046 107.758 30.7566 107.36 30.3083C106.961 29.835 106.339 29.4614 105.492 29.1874L100.036 27.3939C97.8195 26.6715 96.1506 25.6502 95.0297 24.33C93.9087 22.9849 93.3483 21.3783 93.3483 19.5101C93.3483 17.8661 93.7468 16.4213 94.5439 15.1759C95.3659 13.9304 96.4993 12.9589 97.9441 12.2615C99.4137 11.564 101.095 11.2153 102.988 11.2153C104.657 11.2153 106.202 11.5017 107.621 12.0746C109.041 12.6476 110.262 13.4571 111.283 14.5033C112.329 15.5495 113.114 16.8074 113.637 18.2771L108.929 20.4068C108.406 19.1115 107.621 18.1027 106.575 17.3803C105.529 16.633 104.333 16.2594 102.988 16.2594C102.216 16.2594 101.531 16.384 100.933 16.633C100.335 16.8821 99.8745 17.2433 99.5507 17.7166C99.2269 18.165 99.065 18.6881 99.065 19.2859C99.065 19.9335 99.2767 20.5064 99.7002 21.0046C100.124 21.4779 100.759 21.8516 101.606 22.1256L106.949 23.8443C109.191 24.5667 110.86 25.5755 111.956 26.8708C113.076 28.1661 113.637 29.7478 113.637 31.616C113.637 33.2351 113.213 34.6799 112.367 35.9502C111.52 37.1957 110.349 38.1796 108.854 38.902C107.385 39.5995 105.666 39.9482 103.698 39.9482ZM122.771 39.4998V16.7078H115.709V11.6636H135.512V16.7078H128.562V39.4998H122.771ZM134.464 39.4998L143.88 11.6636H151.577L160.993 39.4998H154.678L152.81 33.8205H142.61L140.741 39.4998H134.464ZM144.216 28.7763H151.203L146.944 15.6242H148.513L144.216 28.7763Z" fill="#662249"/>
</svg>
